<svg xmlns="http://www.w3.org/2000/svg"><symbol fill="none" id="sprite-icon-mail" viewBox="0 0 23 23"><title>icon-mail</title><path d="M17.969 19.406H5.03a2.883 2.883 0 01-2.875-2.875V6.47A2.883 2.883 0 015.03 3.595h12.94a2.883 2.883 0 012.875 2.875v10.06a2.883 2.883 0 01-2.875 2.875z" stroke="#000" stroke-miterlimit="10" stroke-linecap="round" stroke-linejoin="round"/><path d="M2.156 7.188l9.344 5.75 9.344-5.75" stroke="#000" stroke-miterlimit="10" stroke-linecap="round" stroke-linejoin="round"/></symbol><symbol fill="none" id="sprite-icon-ok" viewBox="0 0 30 30"><title>icon-ok</title><path d="M15.014 12.432a2.568 2.568 0 002.568-2.591 2.573 2.573 0 00-2.581-2.58 2.577 2.577 0 00-2.588 2.61 2.574 2.574 0 002.601 2.56z" fill="#FF9C44"/><path d="M15 0C6.716 0 0 6.716 0 15c0 8.284 6.716 15 15 15 8.284 0 15-6.716 15-15 0-8.284-6.716-15-15-15zm.021 4.562c2.922.008 5.267 2.397 5.252 5.351-.014 2.886-2.398 5.225-5.315 5.215-2.887-.01-5.255-2.403-5.237-5.295a5.292 5.292 0 015.3-5.271zm5.918 12.642c-.646.663-1.424 1.143-2.287 1.478-.817.317-1.711.476-2.597.582.134.146.197.217.28.3 1.203 1.209 2.41 2.411 3.608 3.623.408.413.493.925.269 1.404-.246.525-.796.87-1.336.833-.342-.024-.608-.193-.845-.432-.907-.913-1.832-1.809-2.72-2.739-.26-.27-.383-.219-.612.016-.912.94-1.84 1.865-2.772 2.784-.42.413-.918.488-1.404.252-.516-.25-.845-.777-.82-1.308.018-.358.194-.632.44-.877 1.19-1.188 2.377-2.379 3.563-3.569.079-.079.152-.163.267-.285-1.619-.17-3.078-.568-4.328-1.545-.155-.121-.315-.238-.456-.375-.547-.525-.602-1.127-.17-1.746.37-.53.992-.672 1.638-.367.125.058.244.133.358.211 2.329 1.6 5.527 1.644 7.865.072a2.12 2.12 0 01.766-.396c.557-.144 1.078.062 1.376.55.343.557.339 1.101-.083 1.534z" fill="#FF9C44"/></symbol><symbol fill="none" id="sprite-icon-phone" viewBox="0 0 23 23"><title>icon-phone</title><g clip-path="url(#clip0)"><path d="M17.73 18.688H5.27" stroke="#000" stroke-linecap="round" stroke-linejoin="round"/><path d="M11.5 19.885a.72.72 0 100 1.439.72.72 0 000-1.439z" fill="#000"/><path d="M15.813.48H7.187a1.917 1.917 0 00-1.916 1.916v18.208c0 1.059.858 1.917 1.917 1.917h8.625a1.917 1.917 0 001.916-1.917V2.396A1.917 1.917 0 0015.813.479z" stroke="#000" stroke-linecap="round" stroke-linejoin="round"/></g><defs><clipPath id="clip0"><path fill="#fff" d="M0 0h23v23H0z"/></clipPath></defs></symbol><symbol fill="none" id="sprite-icon-pin" viewBox="0 0 20 24"><title>icon-pin</title><path d="M9.546.954a6.371 6.371 0 00-6.364 6.364c0 1.054.263 2.098.764 3.024l5.251 9.498a.397.397 0 00.697 0l5.253-9.5a6.375 6.375 0 00.762-3.022A6.371 6.371 0 009.545.954zm4.903 9.003l-4.903 8.869L4.644 9.96a5.575 5.575 0 01-.667-2.643A5.574 5.574 0 019.546 1.75a5.574 5.574 0 015.568 5.568c0 .922-.23 1.836-.665 2.64z" fill="#000"/><path d="M9.546 4.136a3.185 3.185 0 00-3.182 3.182A3.185 3.185 0 009.546 10.5a3.185 3.185 0 003.181-3.182 3.186 3.186 0 00-3.181-3.182zm0 5.569a2.389 2.389 0 01-2.387-2.387 2.389 2.389 0 012.387-2.386 2.389 2.389 0 012.386 2.386 2.389 2.389 0 01-2.386 2.387z" fill="#000"/></symbol><symbol fill="none" id="sprite-icon-vk" viewBox="0 0 30 30"><title>icon-vk</title><path d="M15 30c8.284 0 15-6.716 15-15 0-8.284-6.716-15-15-15C6.716 0 0 6.716 0 15c0 8.284 6.716 15 15 15z" fill="#4D76A1"/><path fill-rule="evenodd" clip-rule="evenodd" d="M14.433 21.579h1.178s.355-.04.537-.235c.167-.18.162-.517.162-.517s-.023-1.58.71-1.812c.723-.23 1.65 1.526 2.634 2.201.744.511 1.31.4 1.31.4l2.63-.037s1.376-.085.723-1.167c-.053-.088-.38-.8-1.955-2.263-1.65-1.53-1.429-1.283.558-3.93 1.21-1.614 1.694-2.598 1.543-3.02-.145-.401-1.034-.295-1.034-.295l-2.962.018s-.22-.03-.382.068c-.16.095-.262.318-.262.318s-.469 1.248-1.094 2.309c-1.319 2.24-1.846 2.357-2.061 2.218-.502-.324-.377-1.302-.377-1.996 0-2.17.33-3.075-.64-3.31-.322-.077-.56-.129-1.383-.137-1.056-.01-1.95.003-2.457.251-.337.165-.597.533-.439.554.196.026.64.12.874.44.304.413.293 1.34.293 1.34s.175 2.555-.407 2.872c-.4.218-.947-.227-2.123-2.258C9.407 12.55 8.952 11.4 8.952 11.4s-.088-.215-.244-.33c-.19-.14-.455-.184-.455-.184l-2.814.018s-.423.012-.578.196c-.138.163-.01.501-.01.501s2.202 5.155 4.697 7.753c2.288 2.381 4.885 2.225 4.885 2.225z" fill="#fff"/></symbol></svg>